<svg xmlns="http://www.w3.org/2000/svg" viewBox="23 25 210 210" role="img" aria-label="LëtzFuel HA">
  <clipPath id="drop">
    <path d="M128 30c22 54 68 92 68 132a68 68 0 0 1-136 0C60 122 106 84 128 30Z"/>
  </clipPath>
  <g clip-path="url(#drop)">
    <rect x="36" y="20" width="184" height="76" fill="#E8112D"/>
    <rect x="36" y="96" width="184" height="56" fill="#FFFFFF"/>
    <rect x="36" y="152" width="184" height="92" fill="#3FB6E4"/>
  </g>
  <path d="M128 30c22 54 68 92 68 132a68 68 0 0 1-136 0C60 122 106 84 128 30Z"
        fill="none" stroke="#191512" stroke-width="10"/>
  <line x1="128" y1="131" x2="128" y2="142" stroke="#191512" stroke-width="7" stroke-linecap="round"/>
  <line x1="128" y1="184" x2="156" y2="150" stroke="#191512" stroke-width="11" stroke-linecap="round"/>
  <circle cx="128" cy="184" r="10" fill="#FFFFFF"/>
  <circle cx="128" cy="184" r="4.5" fill="#191512"/>
</svg>
